<?xml version="1.0" encoding="UTF-8" standalone="no"?>
<svg width="1600" height="700" xmlns="http://www.w3.org/2000/svg">
  <style>
    .point-label {
      text-anchor: middle;
      font-size: 11px;
      font-weight: bold;
      font-family: cursive;
    }
  </style>
  <!-- Background -->
  <rect width="1600" height="700" fill="#ffffff" />

  <!-- Title -->
  <text
    x="700"
    y="40"
    text-anchor="middle"
    font-size="26"
    font-weight="bold"
    fill="#1a1a1a"
  >
    60Percent Dynamics Across Datasets (2-26)
  </text>
  <text x="700" y="65" text-anchor="middle" font-size="14" fill="#666">
    Analysis of competitive percentile changes over time
  </text>

  <!-- Chart area -->
  <g transform="translate(100, 100)">
    <!-- Grid lines (horizontal) -->
    <line x1="0" y1="0" x2="1440" y2="0" stroke="#e0e0e0" stroke-width="1" />
    <line
      x1="0"
      y1="100"
      x2="1440"
      y2="100"
      stroke="#e0e0e0"
      stroke-width="1"
    />
    <line
      x1="0"
      y1="200"
      x2="1440"
      y2="200"
      stroke="#e0e0e0"
      stroke-width="1"
    />
    <line
      x1="0"
      y1="300"
      x2="1440"
      y2="300"
      stroke="#e0e0e0"
      stroke-width="1"
    />
    <line
      x1="0"
      y1="400"
      x2="1440"
      y2="400"
      stroke="#e0e0e0"
      stroke-width="1"
    />
    <line
      x1="0"
      y1="500"
      x2="1440"
      y2="500"
      stroke="#e0e0e0"
      stroke-width="1"
    />

    <!-- Vertical lines for even datasets -->
    <line
      x1="0"
      y1="0"
      x2="0"
      y2="500"
      stroke="#000"
      stroke-width="1"
      opacity="0.1"
    />
    <line
      x1="120"
      y1="0"
      x2="120"
      y2="500"
      stroke="#000"
      stroke-width="1"
      opacity="0.1"
    />
    <line
      x1="240"
      y1="0"
      x2="240"
      y2="500"
      stroke="#000"
      stroke-width="1"
      opacity="0.1"
    />
    <line
      x1="360"
      y1="0"
      x2="360"
      y2="500"
      stroke="#000"
      stroke-width="1"
      opacity="0.1"
    />
    <line
      x1="480"
      y1="0"
      x2="480"
      y2="500"
      stroke="#000"
      stroke-width="1"
      opacity="0.1"
    />
    <line
      x1="600"
      y1="0"
      x2="600"
      y2="500"
      stroke="#000"
      stroke-width="1"
      opacity="0.1"
    />
    <line
      x1="720"
      y1="0"
      x2="720"
      y2="500"
      stroke="#000"
      stroke-width="1"
      opacity="0.1"
    />
    <line
      x1="840"
      y1="0"
      x2="840"
      y2="500"
      stroke="#000"
      stroke-width="1"
      opacity="0.1"
    />
    <line
      x1="960"
      y1="0"
      x2="960"
      y2="500"
      stroke="#000"
      stroke-width="1"
      opacity="0.1"
    />
    <line
      x1="1080"
      y1="0"
      x2="1080"
      y2="500"
      stroke="#000"
      stroke-width="1"
      opacity="0.1"
    />
    <line
      x1="1200"
      y1="0"
      x2="1200"
      y2="500"
      stroke="#000"
      stroke-width="1"
      opacity="0.1"
    />
    <line
      x1="1320"
      y1="0"
      x2="1320"
      y2="500"
      stroke="#000"
      stroke-width="1"
      opacity="0.1"
    />
    <line
      x1="1440"
      y1="0"
      x2="1440"
      y2="500"
      stroke="#000"
      stroke-width="1"
      opacity="0.1"
    />

    <!-- Y-axis labels -->
    <text x="-10" y="5" text-anchor="end" font-size="12" fill="#666">50%</text>
    <text x="-10" y="105" text-anchor="end" font-size="12" fill="#666">
      40%
    </text>
    <text x="-10" y="205" text-anchor="end" font-size="12" fill="#666">
      30%
    </text>
    <text x="-10" y="305" text-anchor="end" font-size="12" fill="#666">
      20%
    </text>
    <text x="-10" y="405" text-anchor="end" font-size="12" fill="#666">
      10%
    </text>
    <text x="-10" y="505" text-anchor="end" font-size="12" fill="#666">0%</text>

    <!-- X-axis -->
    <line x1="0" y1="500" x2="1440" y2="500" stroke="#333" stroke-width="2" />
    <!-- Y-axis -->
    <line x1="0" y1="0" x2="0" y2="500" stroke="#333" stroke-width="2" />

    <!-- X-axis labels (datasets) -->
    <text x="0" y="520" text-anchor="middle" font-size="11" fill="#666">2</text>
    <text x="60" y="520" text-anchor="middle" font-size="11" fill="#666">
      3
    </text>
    <text x="120" y="520" text-anchor="middle" font-size="11" fill="#666">
      4
    </text>
    <text x="180" y="520" text-anchor="middle" font-size="11" fill="#666">
      5
    </text>
    <text x="240" y="520" text-anchor="middle" font-size="11" fill="#666">
      6
    </text>
    <text x="300" y="520" text-anchor="middle" font-size="11" fill="#666">
      7
    </text>
    <text x="360" y="520" text-anchor="middle" font-size="11" fill="#666">
      8
    </text>
    <text x="420" y="520" text-anchor="middle" font-size="11" fill="#666">
      9
    </text>
    <text x="480" y="520" text-anchor="middle" font-size="11" fill="#666">
      10
    </text>
    <text x="540" y="520" text-anchor="middle" font-size="11" fill="#666">
      11
    </text>
    <text x="600" y="520" text-anchor="middle" font-size="11" fill="#666">
      12
    </text>
    <text x="660" y="520" text-anchor="middle" font-size="11" fill="#666">
      13
    </text>
    <text x="720" y="520" text-anchor="middle" font-size="11" fill="#666">
      14
    </text>
    <text x="780" y="520" text-anchor="middle" font-size="11" fill="#666">
      15
    </text>
    <text x="840" y="520" text-anchor="middle" font-size="11" fill="#666">
      16
    </text>
    <text x="900" y="520" text-anchor="middle" font-size="11" fill="#666">
      17
    </text>
    <text x="960" y="520" text-anchor="middle" font-size="11" fill="#666">
      18
    </text>
    <text x="1020" y="520" text-anchor="middle" font-size="11" fill="#666">
      19
    </text>
    <text x="1080" y="520" text-anchor="middle" font-size="11" fill="#666">
      20
    </text>
    <text x="1140" y="520" text-anchor="middle" font-size="11" fill="#666">
      21
    </text>
    <text x="1200" y="520" text-anchor="middle" font-size="11" fill="#666">
      22
    </text>
    <text x="1260" y="520" text-anchor="middle" font-size="11" fill="#666">
      23
    </text>
    <text x="1320" y="520" text-anchor="middle" font-size="11" fill="#666">
      24
    </text>
    <text x="1380" y="520" text-anchor="middle" font-size="11" fill="#666">
      25
    </text>
    <text x="1440" y="520" text-anchor="middle" font-size="11" fill="#666">
      26
    </text>

    <!-- Data points: (x, y) where x = (dataset-2)*60, y = 500 - (percent * 10) -->
    <!-- Dataset 2: 21.46% -> y = 500 - 214.6 = 285.4 -->
    <!-- Dataset 3: 19.62% -> y = 500 - 196.2 = 303.8 -->
    <!-- Dataset 4: 22.00% -> y = 500 - 220.0 = 280.0 -->
    <!-- Dataset 5: 29.02% -> y = 500 - 290.2 = 209.8 -->
    <!-- Dataset 6: 31.45% -> y = 500 - 314.5 = 185.5 -->
    <!-- Dataset 7: 34.21% -> y = 500 - 342.1 = 157.9 -->
    <!-- Dataset 8: 37.62% -> y = 500 - 376.2 = 123.8 -->
    <!-- Dataset 9: 37.84% -> y = 500 - 378.4 = 121.6 -->
    <!-- Dataset 10: 35.90% -> y = 500 - 359.0 = 141.0 -->
    <!-- Dataset 11: 31.01% -> y = 500 - 310.1 = 189.9 -->
    <!-- Dataset 12: 32.20% -> y = 500 - 322.0 = 178.0 -->
    <!-- Dataset 13: 34.40% -> y = 500 - 344.0 = 156.0 -->
    <!-- Dataset 14: 45.67% -> y = 500 - 456.7 = 43.3 -->
    <!-- Dataset 15: 38.44% -> y = 500 - 384.4 = 115.6 -->
    <!-- Dataset 16: 37.76% -> y = 500 - 377.6 = 122.4 -->
    <!-- Dataset 17: 39.92% -> y = 500 - 399.2 = 100.8 -->
    <!-- Dataset 18: 42.60% -> y = 500 - 426.0 = 74.0 -->
    <!-- Dataset 19: 30.36% -> y = 500 - 303.6 = 196.4 -->
    <!-- Dataset 20: 33.09% -> y = 500 - 330.9 = 169.1 -->
    <!-- Dataset 21: 42.17% -> y = 500 - 421.7 = 78.3 -->
    <!-- Dataset 22: 38.72% -> y = 500 - 387.2 = 112.8 -->
    <!-- Dataset 23: 35.11% -> y = 500 - 351.1 = 148.9 -->
    <!-- Dataset 24: 40.61% -> y = 500 - 406.1 = 93.9 -->
    <!-- Dataset 25: 32.89% -> y = 500 - 328.9 = 171.1 -->
    <!-- Dataset 26: 32.10% -> y = 500 - 321.0 = 179.0 -->

    <!-- Main line (polyline connecting all points) -->
    <polyline
      points="0,285.4 60,303.8 120,280 180,209.8 240,185.5 300,157.9 360,123.8 420,121.6 480,141 540,189.9 600,178 660,156 720,43.3 780,115.6 840,122.4 900,100.8 960,61.6 1020,192.4 1080,166.1 1140,76.9 1200,109.1 1260,145.8 1320,91.1 1380,171.1 1440,175"
      fill="none"
      stroke="#2563eb"
      stroke-width="3"
      stroke-linejoin="round"
    />

    <!-- Data points (circles) -->
    <circle
      cx="0"
      cy="285.4"
      r="5"
      fill="#2563eb"
      stroke="#fff"
      stroke-width="2"
    />
    <circle
      cx="60"
      cy="303.8"
      r="5"
      fill="#ef4444"
      stroke="#fff"
      stroke-width="2"
    />
    <circle
      cx="120"
      cy="280"
      r="5"
      fill="#2563eb"
      stroke="#fff"
      stroke-width="2"
    />
    <circle
      cx="180"
      cy="209.8"
      r="5"
      fill="#2563eb"
      stroke="#fff"
      stroke-width="2"
    />
    <circle
      cx="240"
      cy="185.5"
      r="5"
      fill="#2563eb"
      stroke="#fff"
      stroke-width="2"
    />
    <circle
      cx="300"
      cy="157.9"
      r="5"
      fill="#2563eb"
      stroke="#fff"
      stroke-width="2"
    />
    <circle
      cx="360"
      cy="123.8"
      r="5"
      fill="#2563eb"
      stroke="#fff"
      stroke-width="2"
    />
    <circle
      cx="420"
      cy="121.6"
      r="5"
      fill="#22c55e"
      stroke="#fff"
      stroke-width="2"
    />
    <circle
      cx="480"
      cy="141"
      r="5"
      fill="#2563eb"
      stroke="#fff"
      stroke-width="2"
    />
    <circle
      cx="540"
      cy="189.9"
      r="5"
      fill="#ef4444"
      stroke="#fff"
      stroke-width="2"
    />
    <circle
      cx="600"
      cy="178"
      r="5"
      fill="#2563eb"
      stroke="#fff"
      stroke-width="2"
    />
    <circle
      cx="660"
      cy="156"
      r="5"
      fill="#2563eb"
      stroke="#fff"
      stroke-width="2"
    />
    <circle
      cx="720"
      cy="43.3"
      r="6"
      fill="#22c55e"
      stroke="#fff"
      stroke-width="2"
    />
    <circle
      cx="780"
      cy="115.6"
      r="5"
      fill="#2563eb"
      stroke="#fff"
      stroke-width="2"
    />
    <circle
      cx="840"
      cy="122.4"
      r="5"
      fill="#ef4444"
      stroke="#fff"
      stroke-width="2"
    />
    <circle
      cx="900"
      cy="100.8"
      r="5"
      fill="#2563eb"
      stroke="#fff"
      stroke-width="2"
    />
    <circle
      cx="960"
      cy="61.6"
      r="5"
      fill="#22c55e"
      stroke="#fff"
      stroke-width="2"
    />
    <circle
      cx="1020"
      cy="192.4"
      r="6"
      fill="#ef4444"
      stroke="#fff"
      stroke-width="2"
    />
    <circle
      cx="1080"
      cy="166.1"
      r="5"
      fill="#2563eb"
      stroke="#fff"
      stroke-width="2"
    />
    <circle
      cx="1140"
      cy="76.9"
      r="6"
      fill="#22c55e"
      stroke="#fff"
      stroke-width="2"
    />
    <circle
      cx="1200"
      cy="109.1"
      r="5"
      fill="#2563eb"
      stroke="#fff"
      stroke-width="2"
    />
    <circle
      cx="1260"
      cy="145.8"
      r="5"
      fill="#ef4444"
      stroke="#fff"
      stroke-width="2"
    />
    <circle
      cx="1320"
      cy="91.1"
      r="6"
      fill="#22c55e"
      stroke="#fff"
      stroke-width="2"
    />
    <circle
      cx="1380"
      cy="171.1"
      r="5"
      fill="#2563eb"
      stroke="#fff"
      stroke-width="2"
    />
    <circle
      cx="1440"
      cy="175"
      r="5"
      fill="#2563eb"
      stroke="#fff"
      stroke-width="2"
    />

    <!-- Value labels for all points -->
    <rect x="-25" y="260" width="50" height="18" fill="white" opacity="0.8" />
    <text x="0" y="274" class="point-label" fill="#666">21.46%</text>
    <rect x="35" y="312" width="50" height="18" fill="white" opacity="0.8" />
    <text x="60" y="326" class="point-label" fill="#ef4444">19.62%</text>
    <rect x="95" y="254" width="50" height="18" fill="white" opacity="0.8" />
    <text x="120" y="268" class="point-label" fill="#666">22.00%</text>
    <rect x="155" y="179" width="50" height="18" fill="white" opacity="0.8" />
    <text x="180" y="193" class="point-label" fill="#666">29.02%</text>
    <rect x="215" y="160" width="50" height="18" fill="white" opacity="0.8" />
    <text x="240" y="174" class="point-label" fill="#666">31.45%</text>
    <rect x="275" y="127" width="50" height="18" fill="white" opacity="0.8" />
    <text x="300" y="141" class="point-label" fill="#666">34.21%</text>
    <rect x="335" y="91" width="50" height="18" fill="white" opacity="0.8" />
    <text x="360" y="105" class="point-label" fill="#666">37.62%</text>
    <rect x="395" y="89" width="50" height="18" fill="white" opacity="0.8" />
    <text x="420" y="103" class="point-label" fill="#22c55e">37.84%</text>
    <rect x="455" y="153" width="50" height="18" fill="white" opacity="0.8" />
    <text x="480" y="167" class="point-label" fill="#666">35.90%</text>
    <rect x="515" y="201" width="50" height="18" fill="white" opacity="0.8" />
    <text x="540" y="215" class="point-label" fill="#ef4444">31.01%</text>
    <rect x="575" y="189" width="50" height="18" fill="white" opacity="0.8" />
    <text x="600" y="203" class="point-label" fill="#666">32.20%</text>
    <rect x="635" y="168" width="50" height="18" fill="white" opacity="0.8" />
    <text x="660" y="182" class="point-label" fill="#666">34.40%</text>
    <rect x="695" y="18" width="50" height="20" fill="white" opacity="0.9" />
    <text x="720" y="32" class="point-label" fill="#22c55e">45.67%</text>
    <rect x="995" y="199" width="50" height="20" fill="white" opacity="0.9" />
    <text x="1020" y="213" class="point-label" fill="#ef4444">30.76%</text>
    <rect x="1115" y="52" width="50" height="20" fill="white" opacity="0.9" />
    <text x="1140" y="66" class="point-label" fill="#22c55e">42.31%</text>
    <rect x="755" y="125" width="50" height="18" fill="white" opacity="0.8" />
    <text x="780" y="139" class="point-label" fill="#666">38.44%</text>
    <rect x="815" y="132" width="50" height="18" fill="white" opacity="0.8" />
    <text x="840" y="146" class="point-label" fill="#ef4444">37.76%</text>
    <rect x="875" y="110" width="50" height="18" fill="white" opacity="0.8" />
    <text x="900" y="124" class="point-label" fill="#666">39.92%</text>
    <rect x="935" y="35" width="50" height="18" fill="white" opacity="0.8" />
    <text x="960" y="49" class="point-label" fill="#22c55e">43.84%</text>
    <rect x="1055" y="177" width="50" height="18" fill="white" opacity="0.8" />
    <text x="1080" y="191" class="point-label" fill="#666">33.39%</text>
    <rect x="1175" y="76" width="50" height="18" fill="white" opacity="0.8" />
    <text x="1200" y="90" class="point-label" fill="#666">39.09%</text>
    <rect x="1235" y="154" width="50" height="18" fill="white" opacity="0.8" />
    <text x="1260" y="168" class="point-label" fill="#ef4444">35.42%</text>
    <rect x="1295" y="66" width="50" height="20" fill="white" opacity="0.9" />
    <text x="1320" y="80" class="point-label" fill="#22c55e">40.89%</text>
    <rect x="1355" y="178" width="50" height="18" fill="white" opacity="0.8" />
    <text x="1380" y="192" class="point-label" fill="#666">32.89%</text>
    <rect x="1415" y="180" width="50" height="18" fill="white" opacity="0.8" />
    <text x="1440" y="194" class="point-label" fill="#666">32.50%</text>

    <!-- Average line -->
    <line
      x1="0"
      y1="157.1"
      x2="1440"
      y2="157.1"
      stroke="#f59e0b"
      stroke-width="2"
      stroke-dasharray="5,5"
      opacity="0.6"
    />
    <text x="70" y="145" font-size="11" fill="#f59e0b">Avg: 34.29%</text>
  </g>

  <!-- Stats box -->
  <g transform="translate(100, 655)">
    <text x="0" y="0" font-size="11" fill="#666">
      Min: 19.62% (DS 3) | Max: 45.67% (DS 14) | Range: 26.05% | Total Datasets:
      25 | Data Points: 132 | Avg: 34.29%
    </text>
  </g>
</svg>
